<?xml version="1.0" encoding="UTF-8"?>
<svg version="1.1" xmlns="http://www.w3.org/2000/svg" width="50" height="50">
<path d="M0 0 C5.56340585 3.36669624 9.53349183 8.25193794 11.5 14.4375 C12.30594257 22.2813829 12.59671889 30.02934467 7.5 36.4375 C3.04867668 41.14197914 -1.19064516 44.09747071 -7.76953125 44.7734375 C-16.04371997 44.8646634 -22.08428015 44.61560264 -28.2421875 38.7890625 C-34.17397269 32.28964236 -34.96296445 26.57688134 -34.80859375 17.88671875 C-34.22339005 11.3457711 -31.85547257 7.43687235 -27.0625 3.0625 C-19.84507341 -2.93248543 -8.52200107 -3.84066973 0 0 Z M-12.5 7.4375 C-18.10995011 16.43378382 -18.10995011 16.43378382 -23.5 25.5625 C-23.891875 26.24570312 -24.28375 26.92890625 -24.6875 27.6328125 C-25.7052644 29.5635647 -25.7052644 29.5635647 -25.5 32.4375 C-16.59 32.4375 -7.68 32.4375 1.5 32.4375 C1.5 28.93158528 0.66903671 27.60316341 -1.0546875 24.5859375 C-1.58707031 23.65265625 -2.11945312 22.719375 -2.66796875 21.7578125 C-3.23128906 20.78585938 -3.79460938 19.81390625 -4.375 18.8125 C-4.93058594 17.8328125 -5.48617188 16.853125 -6.05859375 15.84375 C-8.51029971 10.88499246 -8.51029971 10.88499246 -12.5 7.4375 Z " fill="#FFFFFF" transform="translate(36.5,3.5625)"/>
</svg>
