<?xml version="1.0" encoding="UTF-8"?>
<svg version="1.1" xmlns="http://www.w3.org/2000/svg" width="50" height="50">
<path d="M0 0 C16.5 0 33 0 50 0 C50 6.27 50 12.54 50 19 C41.75 19 33.5 19 25 19 C25 19.99 25 20.98 25 22 C21.04 22 17.08 22 13 22 C13 21.01 13 20.02 13 19 C8.71 19 4.42 19 0 19 C0 12.73 0 6.46 0 0 Z " fill="#D70D0D" transform="translate(0,15)"/>
<path d="M0 0 C5.61 0 11.22 0 17 0 C17 3.63 17 7.26 17 11 C16.34 11 15.68 11 15 11 C15 8.36 15 5.72 15 3 C14.01 3 13.02 3 12 3 C12 5.64 12 8.28 12 11 C11.01 11 10.02 11 9 11 C9 8.36 9 5.72 9 3 C7.68 3 6.36 3 5 3 C5 5.64 5 8.28 5 11 C3.35 11 1.7 11 0 11 C0 7.37 0 3.74 0 0 Z " fill="#FCF1F1" transform="translate(30,19)"/>
<path d="M0 0 C3.3 0 6.6 0 10 0 C10 3.63 10 7.26 10 11 C8.35 11 6.7 11 5 11 C5 11.99 5 12.98 5 14 C3.35 14 1.7 14 0 14 C0 9.38 0 4.76 0 0 Z " fill="#F9DDDD" transform="translate(17,19)"/>
<path d="M0 0 C3.63 0 7.26 0 11 0 C11 3.63 11 7.26 11 11 C10.01 11 9.02 11 8 11 C8 8.36 8 5.72 8 3 C7.01 3 6.02 3 5 3 C5 5.64 5 8.28 5 11 C3.35 11 1.7 11 0 11 C0 7.37 0 3.74 0 0 Z " fill="#FAE3E3" transform="translate(3,19)"/>
</svg>
