<?xml version="1.0" encoding="UTF-8"?>
<svg version="1.1" xmlns="http://www.w3.org/2000/svg" width="64" height="64">
<path d="M0 0 C6.35557558 4.64039252 11.2429567 9.70960946 13.11328125 17.54296875 C14.29347809 28.32061535 13.37440572 36.79358574 6.5390625 45.5625 C0.82649984 51.88759852 -5.20699039 54.61900147 -13.72119141 55.06445312 C-23.51920653 55.25554513 -30.46684617 52.88139052 -37.76171875 46.29296875 C-44.44393037 38.88408637 -45.78315958 31.19639223 -45.33203125 21.42578125 C-44.41764858 13.45300603 -40.72930378 7.35914885 -34.8046875 2.015625 C-25.06818925 -5.46026062 -10.60929306 -6.36557584 0 0 Z " fill="#F19EC5" transform="translate(47.88671875,6.45703125)"/>
<path d="M0 0 C-3.75 2 -3.75 2 -6 2 C-6 3.98 -6 5.96 -6 8 C-7.299375 8.3403125 -7.299375 8.3403125 -8.625 8.6875 C-12.68689136 10.26712442 -14.85363024 11.99997302 -18 15 C-18.33 15.99 -18.66 16.98 -19 18 C-19.66 18.33 -20.32 18.66 -21 19 C-20.01 19.66 -19.02 20.32 -18 21 C-19.73709111 23.0126297 -21.48801719 25.00936293 -23.25 27 C-23.74113281 27.57234375 -24.23226563 28.1446875 -24.73828125 28.734375 C-26.07691594 30.23364585 -27.53445886 31.62452005 -29 33 C-30.32 33 -31.64 33 -33 33 C-38.00841914 24.75399564 -39.10802858 18.27882864 -37.4375 8.8125 C-34.22823823 2.53350958 -29.70623567 -2.52160856 -23 -5 C-14.7359653 -7.14864902 -6.92061754 -4.61374502 0 0 Z " fill="#EB799A" transform="translate(47,14)"/>
<path d="M0 0 C4.1342609 3.34678263 5.66664661 7.67959892 6.3984375 12.7734375 C6.81857625 20.55600776 5.13307478 26.06944533 0 32 C-2.30279806 33.82242944 -4.27129231 34.78724102 -7 36 C-7.62390625 36.35191406 -8.2478125 36.70382813 -8.890625 37.06640625 C-13.95465059 39.30770646 -19.86310766 38.81445963 -24.94140625 36.87890625 C-27.35487552 35.66702197 -29.69227592 34.40165454 -32 33 C-31.38125 32.7525 -30.7625 32.505 -30.125 32.25 C-27.87872615 31.19173593 -27.87872615 31.19173593 -27.078125 29.11328125 C-25.57319974 26.16340964 -23.48306258 25.0207428 -20.75 23.1875 C-14.92413227 19.08186881 -9.55501246 15.21760502 -8 8 C-7.67 7.34 -7.34 6.68 -7 6 C-3.9375 5.375 -3.9375 5.375 -1 5 C-0.67 3.35 -0.34 1.7 0 0 Z " fill="#E8789A" transform="translate(49,17)"/>
<path d="M0 0 C6.35557558 4.64039252 11.2429567 9.70960946 13.11328125 17.54296875 C14.29347809 28.32061535 13.37440572 36.79358574 6.5390625 45.5625 C0.82649984 51.88759852 -5.20699039 54.61900147 -13.72119141 55.06445312 C-23.51920653 55.25554513 -30.46684617 52.88139052 -37.76171875 46.29296875 C-44.44393037 38.88408637 -45.78315958 31.19639223 -45.33203125 21.42578125 C-44.41764858 13.45300603 -40.72930378 7.35914885 -34.8046875 2.015625 C-25.06818925 -5.46026062 -10.60929306 -6.36557584 0 0 Z M-37.44921875 8.48046875 C-38.30014487 9.81082522 -39.11634339 11.16440232 -39.88671875 12.54296875 C-40.50546875 13.63609375 -41.12421875 14.72921875 -41.76171875 15.85546875 C-44.47242117 24.7405489 -43.12047001 32.4011394 -38.88671875 40.54296875 C-35.3300909 46.56187741 -28.41258895 50.36767868 -21.88671875 52.54296875 C-12.80427416 53.46481421 -5.77918907 51.5871725 1.92578125 46.79296875 C7.7923335 40.75880072 11.07218137 33.8230536 11.61328125 25.41796875 C11.44819559 17.85498215 8.4505891 11.03134814 3.21484375 5.55859375 C-3.40593671 0.27243702 -10.46586144 -2.20093559 -18.9453125 -1.9296875 C-26.20832241 -0.76259029 -32.87133638 2.66746465 -37.44921875 8.48046875 Z " fill="#906E9F" transform="translate(47.88671875,6.45703125)"/>
<path d="M0 0 C-0.99 1.485 -0.99 1.485 -2 3 C-0.68 2.34 0.64 1.68 2 1 C2.042721 2.66611905 2.04063832 4.33382885 2 6 C1 7 1 7 -2.0625 7.0625 C-3.031875 7.041875 -4.00125 7.02125 -5 7 C-5.185625 8.175625 -5.37125 9.35125 -5.5625 10.5625 C-7.65990945 18.7785591 -15.10086638 22.98508884 -21.86328125 27.32421875 C-24.0986496 29.0773687 -24.96931421 30.38627194 -26 33 C-27.65 33 -29.3 33 -31 33 C-27 28.33333333 -23 23.66666667 -19 19 C-19.99 18.34 -20.98 17.68 -22 17 C-21.01 16.67 -20.02 16.34 -19 16 C-18.65353427 14.67001865 -18.32184695 13.33615247 -18 12 C-15.18983347 8.70636395 -12.41062437 6.18007971 -8.0625 5.625 C-7.381875 5.74875 -6.70125 5.8725 -6 6 C-6 4.02 -6 2.04 -6 0 C-3.50907189 -1.24546405 -2.58919267 -0.7767578 0 0 Z " fill="#F6BAC5" transform="translate(47,16)"/>
<path d="M0 0 C0.9075 0.103125 1.815 0.20625 2.75 0.3125 C0.71621978 3.09953215 -0.88865179 5.09741178 -3.875 6.875 C-6.47473936 8.44852645 -7.19034725 9.51887001 -8.25 12.3125 C-9.9 12.3125 -11.55 12.3125 -13.25 12.3125 C-12.86328125 11.86519531 -12.4765625 11.41789062 -12.078125 10.95703125 C-11.55734375 10.35246094 -11.0365625 9.74789062 -10.5 9.125 C-9.94828125 8.49078125 -9.3965625 7.8565625 -8.828125 7.203125 C-7.10145662 5.19708036 -7.10145662 5.19708036 -5.25 2.375 C-3.25 0.3125 -3.25 0.3125 0 0 Z " fill="#FCE3E0" transform="translate(29.25,36.6875)"/>
<path d="M0 0 C-0.99 1.485 -0.99 1.485 -2 3 C-0.68 2.34 0.64 1.68 2 1 C2.042721 2.66611905 2.04063832 4.33382885 2 6 C1 7 1 7 -1.4375 7.1875 C-4 7 -4 7 -6 5 C-6.125 2.375 -6.125 2.375 -6 0 C-3.50907189 -1.24546405 -2.58919267 -0.7767578 0 0 Z " fill="#FEF3EB" transform="translate(47,16)"/>
<path d="M0 0 C-3.3 3.3 -6.6 6.6 -10 10 C-10.66 9.67 -11.32 9.34 -12 9 C-11.43206678 5.52424872 -10.33831755 3.97503634 -7.6875 1.6875 C-7.09324219 1.15511719 -6.49898437 0.62273438 -5.88671875 0.07421875 C-4 -1 -4 -1 0 0 Z " fill="#FDEFE8" transform="translate(40,23)"/>
<path d="M0 0 C0 6.98076923 0 6.98076923 -2.625 9.65625 C-4.38128404 11.15758958 -6.1604474 12.60232427 -8 14 C-7.34 12.68 -6.68 11.36 -6 10 C-7.46225016 9.90754997 -7.46225016 9.90754997 -10 12 C-8.52278578 8.54798361 -6.56205999 6.35038064 -3.875 3.75 C-3.15054688 3.04359375 -2.42609375 2.3371875 -1.6796875 1.609375 C-1.12539063 1.07828125 -0.57109375 0.5471875 0 0 Z " fill="#FCE4E0" transform="translate(41,23)"/>
<path d="M0 0 C-2.26051088 1.73885452 -4.45764544 3.2629027 -6.9375 4.6875 C-10.77271152 7.58347604 -12.71573782 10.83576982 -15 15 C-15.734375 13.2890625 -15.734375 13.2890625 -16 11 C-14.453125 8.7109375 -14.453125 8.7109375 -12.25 6.375 C-11.53328125 5.59898438 -10.8165625 4.82296875 -10.078125 4.0234375 C-6.65969699 0.69496812 -4.69970204 -0.25403795 0 0 Z " fill="#976FA0" transform="translate(26,10)"/>
<path d="M0 0 C0.59296875 0.22558594 1.1859375 0.45117188 1.796875 0.68359375 C0.70403923 1.71654811 -0.40283079 2.7346721 -1.515625 3.74609375 C-2.13050781 4.31457031 -2.74539062 4.88304687 -3.37890625 5.46875 C-3.98089844 5.86964844 -4.58289063 6.27054688 -5.203125 6.68359375 C-6.193125 6.35359375 -7.183125 6.02359375 -8.203125 5.68359375 C-7.30284912 4.64827649 -6.38219465 3.6306521 -5.453125 2.62109375 C-4.68742187 1.76837891 -4.68742187 1.76837891 -3.90625 0.8984375 C-2.203125 -0.31640625 -2.203125 -0.31640625 0 0 Z " fill="#FEF2EA" transform="translate(30.203125,37.31640625)"/>
<path d="M0 0 C0.66 0 1.32 0 2 0 C2 1.65 2 3.3 2 5 C0.68 5 -0.64 5 -2 5 C-1.125 1.125 -1.125 1.125 0 0 Z " fill="#FAD7D8" transform="translate(47,17)"/>
</svg>
